<svg width="305" height="232" viewBox="0 0 305 232" fill="none" xmlns="http://www.w3.org/2000/svg">
<path d="M198.495 179.5H165.495C147.495 179.5 142.372 198.882 147.495 210.5M147.495 210.5C149.956 216.083 156.589 224.5 165.495 224.5C182.995 224.5 225.495 224.5 225.495 224.5C245.712 224.256 258.334 205.502 261.976 185M147.495 210.5C119.495 243.472 93.9947 215.5 93.9947 207C93.9947 189 93.9947 149.5 93.9947 112C93.9947 72.5 67.7052 64.618 46.0002 61C7.00548 54.5 6.00019 20 6 6H93.9947C106.995 6 130.995 12 138.495 32.5C142.359 43.0614 150.173 59.3937 160.409 76M160.409 76C174.933 99.5627 216.135 118 241.995 134C252.5 140.5 265.809 163.417 261.976 185M160.409 76C140.104 78.3333 94.8947 74.5 76.4947 40.5M261.976 185C271.817 185.667 293.1 181.7 299.5 160.5" stroke="#2867B2" stroke-width="11" stroke-linecap="round" stroke-linejoin="round"/>
<circle cx="212" cy="178.5" r="10" stroke="#2867B2" stroke-width="8"/>
<circle cx="70.0002" cy="29.5" r="10" stroke="#2867B2" stroke-width="8"/>
</svg>

